{
    "asset" : {
        "generator" : "Khronos glTF Blender I/O v0.9.36",
        "version" : "2.0"
    },
    "scene" : 0,
    "scenes" : [
        {
            "name" : "Scene",
            "nodes" : [
                0,
                1,
                2
            ]
        }
    ],
    "nodes" : [
        {
            "name" : "Light",
            "rotation" : [
                0.16907575726509094,
                0.7558803558349609,
                -0.27217137813568115,
                0.570947527885437
            ],
            "translation" : [
                4.076245307922363,
                5.903861999511719,
                -1.0054539442062378
            ]
        },
        {
            "name" : "Camera",
            "rotation" : [
                0.6348618268966675,
                0.180776447057724,
                -0.1561928242444992,
                0.7347612977027893
            ],
            "translation" : [
                8.378644943237305,
                3.026406764984131,
                14.838441848754883
            ]
        },
        {
            "mesh" : 0,
            "name" : "Cylinder"
        }
    ],
    "materials" : [
        {
            "doubleSided" : true,
            "name" : "Material",
            "pbrMetallicRoughness" : {
                "baseColorFactor" : [
                    0.37574952840805054,
                    0.022799920290708542,
                    0.02078908123075962,
                    1
                ],
                "metallicFactor" : 0,
                "roughnessFactor" : 0.4000000059604645
            }
        }
    ],
    "meshes" : [
        {
            "name" : "Cylinder",
            "primitives" : [
                {
                    "attributes" : {
                        "POSITION" : 0,
                        "NORMAL" : 1,
                        "TEXCOORD_0" : 2
                    },
                    "indices" : 3,
                    "material" : 0
                }
            ]
        }
    ],
    "accessors" : [
        {
            "bufferView" : 0,
            "componentType" : 5126,
            "count" : 1140,
            "max" : [
                5.480579376220703,
                1.581667184829712,
                3.966353178024292
            ],
            "min" : [
                -5.480579376220703,
                -0.301009863615036,
                -5.952762603759766
            ],
            "type" : "VEC3"
        },
        {
            "bufferView" : 1,
            "componentType" : 5126,
            "count" : 1140,
            "type" : "VEC3"
        },
        {
            "bufferView" : 2,
            "componentType" : 5126,
            "count" : 1140,
            "type" : "VEC2"
        },
        {
            "bufferView" : 3,
            "componentType" : 5123,
            "count" : 1716,
            "type" : "SCALAR"
        }
    ],
    "bufferViews" : [
        {
            "buffer" : 0,
            "byteLength" : 13680,
            "byteOffset" : 0
        },
        {
            "buffer" : 0,
            "byteLength" : 13680,
            "byteOffset" : 13680
        },
        {
            "buffer" : 0,
            "byteLength" : 9120,
            "byteOffset" : 27360
        },
        {
            "buffer" : 0,
            "byteLength" : 3432,
            "byteOffset" : 36480
        }
    ],
    "buffers" : [
        {
            "byteLength" : 39912,
            "uri" : "data:application/octet-stream;base64,"
        }
    ]
}
