<?xml version="1.0" encoding="UTF-8" standalone="no"?>
<svg
   xmlns:dc="http://purl.org/dc/elements/1.1/"
   xmlns:cc="http://creativecommons.org/ns#"
   xmlns:rdf="http://www.w3.org/1999/02/22-rdf-syntax-ns#"
   xmlns:svg="http://www.w3.org/2000/svg"
   xmlns="http://www.w3.org/2000/svg"
   xmlns:sodipodi="http://sodipodi.sourceforge.net/DTD/sodipodi-0.dtd"
   xmlns:inkscape="http://www.inkscape.org/namespaces/inkscape"
   width="81.227081mm"
   height="44.185417mm"
   viewBox="0 0 81.227081 44.185417"
   version="1.1"
   id="svg8"
   inkscape:version="1.0.2 (1.0.2+r75+1)"
   sodipodi:docname="logo.svg"
   inkscape:export-filename="/home/siege/Projects/BladeBlade/data/logo.png"
   inkscape:export-xdpi="150"
   inkscape:export-ydpi="150">
  <defs
     id="defs2" />
  <sodipodi:namedview
     id="base"
     pagecolor="#000000"
     bordercolor="#666666"
     borderopacity="1.0"
     inkscape:pageopacity="0"
     inkscape:pageshadow="2"
     inkscape:zoom="1.979899"
     inkscape:cx="143.2298"
     inkscape:cy="-8.7350024"
     inkscape:document-units="mm"
     inkscape:current-layer="layer1"
     inkscape:document-rotation="0"
     showgrid="false"
     inkscape:window-width="1263"
     inkscape:window-height="1384"
     inkscape:window-x="1295"
     inkscape:window-y="0"
     inkscape:window-maximized="0"
     fit-margin-top="0"
     fit-margin-left="0"
     fit-margin-right="0"
     fit-margin-bottom="0">
    <inkscape:grid
       type="xygrid"
       id="grid833"
       color="#0000c4"
       opacity="0.1254902"
       empcolor="#0000ff"
       empopacity="0.54509804"
       originx="-73.818748"
       originy="-79.110415" />
  </sodipodi:namedview>
  <metadata
     id="metadata5">
    <rdf:RDF>
      <cc:Work
         rdf:about="">
        <dc:format>image/svg+xml</dc:format>
        <dc:type
           rdf:resource="http://purl.org/dc/dcmitype/StillImage" />
        <dc:title></dc:title>
      </cc:Work>
    </rdf:RDF>
  </metadata>
  <g
     inkscape:label="Layer 1"
     inkscape:groupmode="layer"
     id="layer1"
     transform="translate(-73.818752,-79.110417)">
    <g
       id="g934"
       transform="translate(43.656259)">
      <path
         style="fill:none;fill-rule:evenodd;stroke:#ffffff;stroke-width:0.264583px;stroke-linecap:butt;stroke-linejoin:miter;stroke-opacity:1"
         d="M 30.427083,96.572915 35.71875,82.020832 h 7.937499 l 2.645834,2.645834 -1.322917,3.96875 c -0.01532,0.172722 -2.645833,1.322916 -2.645833,1.322916 l 1.322916,2.645834 -1.322916,3.968749 -2.645833,2.645834 H 31.75 Z"
         id="path835"
         sodipodi:nodetypes="ccccccccccc" />
      <path
         style="fill:none;fill-rule:evenodd;stroke:#ffffff;stroke-width:0.264583px;stroke-linecap:butt;stroke-linejoin:miter;stroke-opacity:1"
         d="m 37.041666,84.666666 -1.322916,3.96875 h 5.027083 l 1.5875,-1.322917 v -2.645833 z"
         id="path837" />
      <path
         style="fill:none;fill-rule:evenodd;stroke:#ffffff;stroke-width:0.264583px;stroke-linecap:butt;stroke-linejoin:miter;stroke-opacity:1"
         d="m 34.395832,92.471876 -1.322916,3.96875 h 5.027083 l 1.5875,-1.322917 v -2.645833 z"
         id="path839" />
      <path
         style="fill:none;fill-rule:evenodd;stroke:#ffffff;stroke-width:0.264583px;stroke-linecap:butt;stroke-linejoin:miter;stroke-opacity:1"
         d="m 50.270832,82.020832 -5.820833,17.197917 h 2.645833 l 5.820834,-17.197917 z"
         id="path841"
         sodipodi:nodetypes="ccccc" />
      <path
         style="fill:none;fill-rule:evenodd;stroke:#ffffff;stroke-width:0.264583px;stroke-linecap:butt;stroke-linejoin:miter;stroke-opacity:1"
         d="m 55.033331,89.958332 -2.645833,2.645834 -1.322917,3.968749 2.645834,2.645834 h 3.96875 l 1.322916,-1.322917 v 1.322917 h 2.248959 l 3.042708,-9.260417 h -2.645833 l -0.661459,1.322917 -1.455208,-1.322917 z"
         id="path861"
         sodipodi:nodetypes="ccccccccccccc" />
      <path
         style="fill:none;fill-rule:evenodd;stroke:#ffffff;stroke-width:0.264583px;stroke-linecap:butt;stroke-linejoin:miter;stroke-opacity:1"
         d="m 55.033331,92.604166 -1.322916,3.968749 h 3.96875 l 1.322916,-3.968749 z"
         id="path865" />
      <path
         id="path881"
         style="fill:none;fill-rule:evenodd;stroke:#e6e6e6;stroke-width:0.264583px;stroke-linecap:butt;stroke-linejoin:miter;stroke-opacity:1"
         d="m 75.40625,89.958332 -0.529169,1.322918 -1.587498,-1.322918 h -4.497917 l -2.645833,2.645834 -1.322917,3.968749 2.645834,2.645834 h 3.96875 l 1.322916,-1.322917 v 1.322917 h 2.248959 l 3.042708,-9.260417 m -3.174994,9.260417 5.820834,-17.197917 h -2.645834 l -2.645841,7.937501"
         sodipodi:nodetypes="cccccccccccccccc" />
      <path
         style="fill:none;fill-rule:evenodd;stroke:#ffffff;stroke-width:0.264583px;stroke-linecap:butt;stroke-linejoin:miter;stroke-opacity:1"
         d="m 68.791666,92.604166 -1.322916,3.968749 h 3.96875 l 1.322916,-3.968749 z"
         id="path883" />
      <path
         style="fill:none;fill-rule:evenodd;stroke:#ffffff;stroke-width:0.264583px;stroke-linecap:butt;stroke-linejoin:miter;stroke-opacity:1"
         d="m 83.211465,89.958334 -2.645833,1.322907 -1.322917,3.968741 v 2.645834 l 1.322917,1.322907 h 6.581174 l 0.892633,-2.645824 h -2.18214 -4.247508 l 0.675632,-1.984374 h 4.894792 l 1.934262,-1.19062 0.711571,-2.116664 -1.322917,-1.322907 z"
         id="path886"
         sodipodi:nodetypes="ccccccccccccccc" />
      <path
         style="fill:none;fill-rule:evenodd;stroke:#ffffff;stroke-width:0.264583px;stroke-linecap:butt;stroke-linejoin:miter;stroke-opacity:1"
         d="m 82.838214,93.001038 0.637834,-1.719797 h 4.365625 l -0.602399,1.719797 z"
         id="path888"
         sodipodi:nodetypes="ccccc" />
    </g>
    <g
       id="g922"
       transform="translate(42.994784,1.32292)">
      <path
         style="fill:none;fill-rule:evenodd;stroke:#ffffff;stroke-width:0.264583px;stroke-linecap:butt;stroke-linejoin:miter;stroke-opacity:1"
         d="m 52.387504,115.22608 5.291667,-14.55212 h 7.937499 l 2.645834,2.64584 -1.322917,3.96876 c -0.01532,0.17272 -2.645833,1.32292 -2.645833,1.32292 l 1.322916,2.64584 -1.322916,3.96876 -2.645833,2.64584 h -7.9375 z"
         id="path892"
         sodipodi:nodetypes="ccccccccccc" />
      <path
         style="fill:none;fill-rule:evenodd;stroke:#ffffff;stroke-width:0.264583px;stroke-linecap:butt;stroke-linejoin:miter;stroke-opacity:1"
         d="m 59.002087,103.3198 -1.322916,3.96876 h 5.027083 l 1.5875,-1.32292 v -2.64584 z"
         id="path894" />
      <path
         style="fill:none;fill-rule:evenodd;stroke:#ffffff;stroke-width:0.264583px;stroke-linecap:butt;stroke-linejoin:miter;stroke-opacity:1"
         d="m 56.356253,111.12503 -1.322916,3.96876 h 5.027083 l 1.5875,-1.32292 v -2.64584 z"
         id="path896" />
      <path
         style="fill:none;fill-rule:evenodd;stroke:#ffffff;stroke-width:0.264583px;stroke-linecap:butt;stroke-linejoin:miter;stroke-opacity:1"
         d="m 72.231253,100.67396 -5.820833,17.19796 h 2.645833 l 5.820834,-17.19796 z"
         id="path898"
         sodipodi:nodetypes="ccccc" />
      <path
         style="fill:none;fill-rule:evenodd;stroke:#ffffff;stroke-width:0.264583px;stroke-linecap:butt;stroke-linejoin:miter;stroke-opacity:1"
         d="m 76.993752,108.61148 -2.645833,2.64584 -1.322917,3.96876 2.645834,2.64584 h 3.96875 l 1.322916,-1.32292 v 1.32292 h 2.248959 l 3.042708,-9.26044 h -2.645833 l -0.661459,1.32292 -1.455208,-1.32292 z"
         id="path900"
         sodipodi:nodetypes="ccccccccccccc" />
      <path
         style="fill:none;fill-rule:evenodd;stroke:#ffffff;stroke-width:0.264583px;stroke-linecap:butt;stroke-linejoin:miter;stroke-opacity:1"
         d="m 76.993752,111.25732 -1.322916,3.96876 h 3.96875 l 1.322916,-3.96876 z"
         id="path902" />
      <path
         id="path904"
         style="fill:none;fill-rule:evenodd;stroke:#e6e6e6;stroke-width:0.264583px;stroke-linecap:butt;stroke-linejoin:miter;stroke-opacity:1"
         d="m 97.366668,108.61148 -0.52917,1.32292 -1.587494,-1.32292 h -4.497917 l -2.645833,2.64584 -1.322917,3.96876 2.645834,2.64584 h 3.96875 l 1.322916,-1.32292 v 1.32292 h 2.248961 l 3.042712,-9.26044 m -3.175002,9.26044 5.820852,-17.19796 h -2.64584 l -2.645852,7.93752"
         sodipodi:nodetypes="cccccccccccccccc" />
      <path
         style="fill:none;fill-rule:evenodd;stroke:#ffffff;stroke-width:0.264583px;stroke-linecap:butt;stroke-linejoin:miter;stroke-opacity:1"
         d="m 90.752087,111.25732 -1.322916,3.96876 h 3.96875 l 1.322916,-3.96876 z"
         id="path906" />
      <path
         style="fill:none;fill-rule:evenodd;stroke:#ffffff;stroke-width:0.264583px;stroke-linecap:butt;stroke-linejoin:miter;stroke-opacity:1"
         d="m 105.17191,108.61148 -2.64584,1.32291 -1.32292,3.96875 v 2.64584 l 1.32292,1.32291 h 6.58119 l 0.89263,-2.64583 h -2.18214 -4.24752 l 0.67563,-1.98438 h 4.8948 l 1.93427,-1.19062 0.71157,-2.11667 -1.32292,-1.32291 z"
         id="path908"
         sodipodi:nodetypes="ccccccccccccccc" />
      <path
         style="fill:none;fill-rule:evenodd;stroke:#ffffff;stroke-width:0.264583px;stroke-linecap:butt;stroke-linejoin:miter;stroke-opacity:1"
         d="m 104.79865,111.65419 0.63784,-1.7198 h 4.36563 l -0.6024,1.7198 z"
         id="path910"
         sodipodi:nodetypes="ccccc" />
    </g>
  </g>
</svg>
